PathFileType	4	(X/Y/Z)	./resultDataOpenSim/trcMotMarkerGrf/sub09/qtm-15-01.trc
DataRate	CameraRate	NumFrames	NumMarkers	Units	OrigDataRate	OrigDataStartFrame	OrigNumFrames
250.000000	250.000000	10	24	m	250.000000	191	508
Frame#	Time	L.Toe.Tip			R.Toe.Tip			L.Ankle.Lat			R.Ankle.Lat			L.Ankle.Med			R.Ankle.Med			L.Heel			R.Heel			L.Knee.Lat			R.Knee.Lat			L.Knee.Med			R.Knee.Med			L.Thigh.Upper			R.Thigh.Upper			L.ASIS			R.ASIS			V.Sacral			L.Acromium			R.Acromium			C7			L.Elbow			R.Elbow			L.Wrist.Lat			R.Wrist.Lat
		X1	Y1	Z1	X2	Y2	Z2	X3	Y3	Z3	X4	Y4	Z4	X5	Y5	Z5	X6	Y6	Z6	X7	Y7	Z7	X8	Y8	Z8	X9	Y9	Z9	X10	Y10	Z10	X11	Y11	Z11	X12	Y12	Z12	X13	Y13	Z13	X14	Y14	Z14	X15	Y15	Z15	X16	Y16	Z16	X17	Y17	Z17	X18	Y18	Z18	X19	Y19	Z19	X20	Y20	Z20	X21	Y21	Z21	X22	Y22	Z22	X23	Y23	Z23	X24	Y24	Z24

191	0.76	0.19265668	-0.056842838	0.010801234	-0.56718982	0.074377823	0.0895749	0.050245575	-0.02459443	-0.05645654	-0.60602296	0.22584807	0.12313436	0.055343681	-0.010821942	0.042901943	-0.54309983	0.21703367	0.043695435	-0.02447999	-0.065607905	-0.021843629	-0.63698021	0.2705507	0.059447833	0.066287548	0.39322622	-0.10024115	-0.21022381	0.40763937	0.22410464	0.041001748	0.39176713	0.023441699	-0.17806022	0.37093889	0.10263828	-0.062552708	0.78025234	-0.15904278	-0.15730895	0.80432147	0.20545234	-0.0037591658	0.8644806	-0.084305927	-0.034930254	0.87951015	0.15454237	-0.18395057	0.93030252	-0.0017569199	-0.061298711	1.3237511	-0.17073995	-0.12123078	1.3505417	0.15561558	-0.15849829	1.3770323	-0.017545303	-0.22004663	1.0002594	-0.22978295	-0.24682175	1.0216282	0.2720116	-0.11216968	0.76051526	-0.26763688	-0.097048555	0.79884909	0.31996834
192	0.764	0.19305176	-0.057008643	0.010122305	-0.55848564	0.078409571	0.091235332	0.050930177	-0.024201148	-0.056700655	-0.59437133	0.23102386	0.12335795	0.056245606	-0.010364789	0.042511424	-0.53186736	0.22112716	0.044195161	-0.024339176	-0.065302767	-0.021385428	-0.62440121	0.27664938	0.060102446	0.075171374	0.39424984	-0.10067823	-0.19828368	0.40472741	0.22451426	0.050518932	0.39491998	0.022741899	-0.16492642	0.36920237	0.1027201	-0.059582334	0.78163319	-0.16037106	-0.1499608	0.80134928	0.20603912	0.0012552869	0.86363184	-0.085518379	-0.028677367	0.87744339	0.15396066	-0.17895555	0.92964466	-0.00059102703	-0.052803888	1.3217013	-0.1715104	-0.11538533	1.3486424	0.1551925	-0.15028748	1.376417	-0.018784442	-0.21127122	0.99790394	-0.23126163	-0.24126609	1.0193379	0.27084025	-0.1041714	0.75814609	-0.2688298	-0.092090164	0.79685933	0.32089647
193	0.768	0.19370254	-0.057204831	0.0095840745	-0.54864646	0.08278494	0.093075898	0.051688497	-0.024106287	-0.056978978	-0.58226741	0.23617394	0.12349619	0.057444982	-0.010072909	0.04217418	-0.52029754	0.22535049	0.044637419	-0.02408621	-0.064944663	-0.020862996	-0.6116727	0.2823675	0.060636634	0.083330647	0.3944122	-0.10131783	-0.18419499	0.40179329	0.22464277	0.05992654	0.3966664	0.021927884	-0.15209582	0.3679349	0.10282697	-0.057162862	0.78278068	-0.16148484	-0.14288058	0.7983658	0.20659062	0.0062977267	0.86368374	-0.087244221	-0.02268712	0.87562102	0.15338477	-0.17301683	0.92872437	0.0013131755	-0.044358086	1.3199138	-0.1721002	-0.10946989	1.347	0.15479052	-0.14222339	1.375864	-0.019809536	-0.20220153	0.99559793	-0.23278252	-0.2356194	1.0172384	0.26947701	-0.096115433	0.7557984	-0.26997397	-0.08726359	0.79497043	0.32176784
194	0.772	0.19429558	-0.057407462	0.0093637099	-0.53790142	0.08739012	0.094993705	0.052442024	-0.024266074	-0.057393031	-0.56977382	0.24125101	0.12368471	0.058538289	-0.0098581087	0.041738996	-0.50836755	0.22965782	0.045029669	-0.023786533	-0.064643477	-0.020738837	-0.59894077	0.2877676	0.061105761	0.090652487	0.39392352	-0.10209311	-0.16858616	0.39892751	0.22458427	0.069026481	0.39700863	0.021105642	-0.13949518	0.36699375	0.10306659	-0.054813157	0.78355199	-0.16223506	-0.13604097	0.79544525	0.20708355	0.011433641	0.86438523	-0.089115746	-0.016876228	0.87402415	0.15280612	-0.16640072	0.92747781	0.0035864947	-0.035972177	1.3184192	-0.17250935	-0.10338065	1.3456497	0.15435816	-0.13439677	1.3751955	-0.020737272	-0.19283401	0.99343901	-0.23432901	-0.2297874	1.0154391	0.26788993	-0.087987893	0.75353635	-0.27104117	-0.082574947	0.79326504	0.32256165
195	0.776	0.19462616	-0.05760813	0.0093873205	-0.52639907	0.092151068	0.096894594	0.053156421	-0.024613954	-0.057986281	-0.55693609	0.24622788	0.12403174	0.059253886	-0.0096866446	0.041111915	-0.49606181	0.23396429	0.045498993	-0.02354258	-0.064433079	-0.021275267	-0.58620678	0.29292166	0.061622383	0.097208182	0.39303603	-0.10294927	-0.15205219	0.39621392	0.22441996	0.077745314	0.39627382	0.02027755	-0.12682654	0.3661926	0.10334784	-0.052081641	0.78401322	-0.16260355	-0.12935161	0.79268011	0.20751938	0.016755169	0.86542944	-0.090541972	-0.011190282	0.87262277	0.15221253	-0.16009034	0.92600529	0.0054811922	-0.027666955	1.3172118	-0.17277237	-0.097022945	1.3445995	0.15388115	-0.12681884	1.3743681	-0.021605774	-0.18321699	0.99154804	-0.23583808	-0.22371923	1.0140089	0.26607526	-0.07976198	0.75143527	-0.27201853	-0.078012282	0.7918173	0.32325295
196	0.78	0.1946685	-0.057812369	0.0094881277	-0.51419162	0.096999192	0.09872046	0.053832219	-0.02510031	-0.05872953	-0.54377431	0.25108161	0.1245877	0.059546022	-0.0095801679	0.040321635	-0.48340751	0.23821622	0.046123112	-0.02342725	-0.064297476	-0.022374634	-0.57334405	0.29787416	0.062286922	0.10319067	0.39190823	-0.10386795	-0.13512359	0.39372994	0.22422326	0.086071652	0.39485041	0.019418079	-0.11376937	0.36536747	0.10343803	-0.048709524	0.78424521	-0.16266449	-0.12267777	0.79017475	0.20789527	0.022317083	0.86655464	-0.091346949	-0.0056073319	0.87138661	0.15160356	-0.15508127	0.92448029	0.0061216667	-0.019456358	1.3162585	-0.17293271	-0.090340088	1.3438293	0.15338411	-0.11941799	1.3734762	-0.022371587	-0.17344649	0.99002188	-0.23722017	-0.21752736	1.0129909	0.26409108	-0.071406251	0.7495642	-0.27290898	-0.073558667	0.79065762	0.32382416
197	0.784	0.19452006	-0.058013324	0.0095439698	-0.50132204	0.10183493	0.10043281	0.054470408	-0.025664109	-0.059536141	-0.53029426	0.2557845	0.12534646	0.059546892	-0.0095515693	0.039489961	-0.47048113	0.24242041	0.046802539	-0.023435542	-0.064206622	-0.023696792	-0.56022784	0.30264436	0.063155197	0.10878977	0.39057603	-0.10483533	-0.11828805	0.39154839	0.22404502	0.093987757	0.39301523	0.018588039	-0.10027763	0.36445665	0.1031585	-0.044714134	0.78425332	-0.16249657	-0.115873	0.78801391	0.20819815	0.028044808	0.86757158	-0.091925772	-0.0001168909	0.87030163	0.15098738	-0.15125478	0.92304138	0.0054524464	-0.011330819	1.3155122	-0.17301722	-0.083335931	1.3433108	0.15290348	-0.11206737	1.3726429	-0.022985299	-0.16363647	0.98888411	-0.23840143	-0.21140064	1.0123958	0.26202701	-0.062892095	0.74796852	-0.27371958	-0.069189039	0.78976637	0.32427673
198	0.788	0.19432456	-0.058179164	0.0094980639	-0.48789603	0.10655276	0.10200177	0.055068305	-0.026196123	-0.060272514	-0.51650899	0.26030641	0.12626928	0.059450212	-0.0095648627	0.038770757	-0.45734152	0.24658821	0.047408306	-0.023502634	-0.06411348	-0.024885697	-0.54683266	0.30723792	0.064247338	0.11410936	0.38900235	-0.1057702	-0.1019369	0.38973539	0.2238826	0.10141983	0.39090817	0.017924635	-0.086560619	0.36350539	0.10249992	-0.040364767	0.78397789	-0.16211813	-0.10882249	0.78623047	0.20841312	0.033776292	0.86833403	-0.092651019	0.0052894034	0.86937695	0.15037609	-0.14739411	0.92174218	0.0045212233	-0.0032602072	1.3149265	-0.17302803	-0.076057448	1.3430195	0.1524687	-0.10467431	1.371924	-0.023442898	-0.15388725	0.98808434	-0.23935513	-0.20542811	1.0121832	0.25995081	-0.054197104	0.74666302	-0.27444777	-0.064873294	0.78909975	0.32463119
199	0.792	0.1942137	-0.058287925	0.0093673796	-0.47406239	0.11108167	0.10341333	0.055636943	-0.02658743	-0.06078392	-0.50244924	0.26461631	0.12730767	0.059423856	-0.0095682484	0.0382991	-0.44397967	0.25069849	0.047953485	-0.023553002	-0.063968862	-0.025697546	-0.53322103	0.31165534	0.065545535	0.11919842	0.38716717	-0.10654488	-0.086215043	0.38834679	0.22367283	0.1082228	0.38860342	0.01752253	-0.072779981	0.36262059	0.1015689	-0.036001837	0.78338341	-0.16156016	-0.1014854	0.78479147	0.20852603	0.039394901	0.86875123	-0.093551478	0.010614332	0.8686342	0.14978585	-0.14254969	0.92063072	0.0043473652	0.0047865427	1.3144621	-0.17295257	-0.06856103	1.3429246	0.15210017	-0.097252071	1.3713075	-0.023792188	-0.14427168	0.98752447	-0.24011074	-0.19952203	1.0122635	0.25789907	-0.045309295	0.74563531	-0.27508697	-0.060584934	0.78861676	0.32491405
200	0.796	0.19425884	-0.058357733	0.0092398816	-0.45992837	0.11539421	0.10467368	0.056200108	-0.026804029	-0.060964544	-0.48814883	0.26868604	0.12841451	0.059573425	-0.0095531049	0.038150685	-0.43036417	0.25472153	0.04851356	-0.023531819	-0.063757126	-0.025993895	-0.5194871	0.31590338	0.066994862	0.12410604	0.38514494	-0.10707888	-0.070926377	0.38741955	0.22334272	0.11426618	0.38621799	0.017375613	-0.058948488	0.36193928	0.10046001	-0.031634749	0.78254592	-0.16109477	-0.09391047	0.78360995	0.20852075	0.044910537	0.86882878	-0.094482037	0.015861891	0.86808915	0.14923289	-0.13679872	0.91981014	0.0049353036	0.012828367	1.3140857	-0.17278156	-0.060902603	1.3429795	0.15181012	-0.089893885	1.3707589	-0.024099735	-0.13483704	0.98708965	-0.24073113	-0.1934789	1.0125272	0.25589617	-0.036225713	0.74485424	-0.27565278	-0.056307668	0.78828413	0.32514293
